<?xml version="1.0" encoding="utf-8"?>
<!-- Generator: Adobe Illustrator 19.1.0, SVG Export Plug-In . SVG Version: 6.00 Build 0)  -->
<svg version="1.1" id="Layer_1" xmlns="http://www.w3.org/2000/svg" xmlns:xlink="http://www.w3.org/1999/xlink" x="0px" y="0px"
	 viewBox="0 0 28 28" style="enable-background:new 0 0 28 28;" xml:space="preserve">
<style type="text/css">
	.st0{fill:#CCCCCC;}
	.st1{fill:#F2F2F2;}
	.st2{fill:#999999;}
</style>
<g>
	<path class="st0" d="M23.4,12.2c-1.9-5.5-6.8-9-11.7-8.7c0-0.4,0-0.8-0.2-1.1c-0.5-1.6-2.2-2.4-3.8-1.9S5.4,2.7,5.9,4.3
		c0.1,0.4,0.4,0.8,0.7,1.1C2.8,8.2,1.2,13.8,3,19.2c0.5,1.5,1,2.5,1.1,3.4c0.1,3.7,1.4,2.2,8.9-0.5l2.7-0.9c8.6-2.9,11-2.7,9-5.6
		C24.1,14.8,23.9,13.6,23.4,12.2z"/>
	<path class="st0" d="M15.2,27.7c-1.9,0.2-3.7-1.1-3.9-3c-0.1-0.7,0.4-1.2,1.1-1.3l4.6-0.5c0.7-0.1,1.3,0.3,1.3,1
		C18.5,25.8,17.1,27.5,15.2,27.7z"/>
</g>
</svg>
