<?xml version="1.0" encoding="utf-8"?>
<!-- Generator: Adobe Illustrator 19.2.1, SVG Export Plug-In . SVG Version: 6.00 Build 0)  -->
<svg version="1.1" id="Layer_1" xmlns="http://www.w3.org/2000/svg" xmlns:xlink="http://www.w3.org/1999/xlink" x="0px" y="0px"
	 viewBox="0 0 800 800" style="enable-background:new 0 0 800 800;" xml:space="preserve">
<style type="text/css">
	.st0{fill:#FFC627;}
</style>
<g>
	<g>
		<path class="st0" d="M525.3,132.4c62.9,0,113.9,230.6,113.9,589.5h91.1c0-358.9-91.8-643.9-205-643.9
			c-64.4,0-121.9,82.8-159.5,217.1C328.3,160.9,270.8,79.5,206.3,79.5C93.1,79.5,1.3,363,1.3,721.9h91.2
			c0-358.9,51-589.5,113.9-589.5c62.9,0,113.9,230.6,113.9,549.6h91.1C411.4,363,462.4,132.4,525.3,132.4z"/>
	</g>
	<g>
		<path class="st0" d="M776,664.4c12.4,0,22.7,9.8,22.7,22.7c0,13.1-10.4,22.9-22.7,22.9c-12.4,0-22.9-9.8-22.9-22.9
			C753.1,674.2,763.6,664.4,776,664.4z M776,706.7c10.5,0,18.6-8.4,18.6-19.5c0-10.9-8.1-19.3-18.6-19.3c-10.6,0-18.7,8.4-18.7,19.3
			C757.3,698.3,765.4,706.7,776,706.7z M767.1,673.9h10.3c6.3,0,9.3,2.5,9.3,7.6c0,4.8-3,6.8-6.9,7.3l7.6,11.8h-4.4l-7.2-11.4h-4.4
			v11.4h-4.1V673.9z M771.3,685.7h4.3c3.6,0,6.9-0.2,6.9-4.4c0-3.5-3-4.1-5.8-4.1h-5.4V685.7z"/>
	</g>
</g>
</svg>
