<?xml version="1.0" encoding="utf-8"?>
<!-- Generator: Adobe Illustrator 19.2.1, SVG Export Plug-In . SVG Version: 6.00 Build 0)  -->
<svg version="1.1" id="Layer_1" xmlns="http://www.w3.org/2000/svg" xmlns:xlink="http://www.w3.org/1999/xlink" x="0px" y="0px"
	 viewBox="0 0 800 800" style="enable-background:new 0 0 800 800;" xml:space="preserve">
<style type="text/css">
	.st0{fill:#FFFFFF;}
</style>
<g>
	<path class="st0" d="M200.8,476.7c53.8-30.2,88.2-10.9,89.2,45.5c0.4,24.2-0.8,48.5,0.4,72.6c0.8,16.3-7.8,16.8-20,17
		c-13,0.2-20.2-2.1-19.5-17.6c1.1-24.2,0.3-48.4,0.1-72.6c-0.1-14-5.1-25-20.8-26.1c-14.9-1-23.2,7.9-26.5,21.6
		c-6,25.5-2.6,51.6-2.4,77.3c0.1,15.7-6.9,17.4-19.6,17.5c-13,0.1-19.8-2.2-19.6-17.6c0.8-55.9,0.7-111.9,0-167.8
		c-0.2-15.4,6.7-17.7,19.7-17.7c13.2,0,20.4,2.6,19.3,17.9C199.9,442.2,200.8,457.9,200.8,476.7z"/>
	<path class="st0" d="M354.2,327.9c0,11.7,0.1,23.4,0,35.1c-0.1,22.9-16.2,34.6-34.1,21.4c-9.5-7-12.4-4.1-19.3-0.3
		c-14.6,8-30.7,8.3-46.4,4.9c-19.5-4.3-32.8-15.9-35.3-37.1c-2.4-20.8,6.4-35.5,24.6-45c16-8.4,33.9-8.2,51.1-11.1
		c8.3-1.4,18.1-1.3,18-12.8c-0.1-12.3-9-17.1-20-18.1c-11.4-1-22.7,1-28.4,11.7c-9.2,17.4-25.5,12.9-33.5,5.7
		c-7.9-7.1,2.3-19.6,9.4-27.5c16.5-18.5,53.4-23.9,82.1-13.1c26.3,9.9,33.3,30.5,31.9,56.1C353.8,307.9,354.2,317.9,354.2,327.9z
		 M283.6,361.5c2.2-0.3,5.6-0.3,8.7-1.2c16.9-4.6,26.5-16.3,23-33.1c-4.1-19.2-18.4-4-28-5.1c-3.9-0.5-8.1,1.6-12.1,2.7
		c-11.2,3.1-21.4,8.4-18.4,22C259.6,359.6,271,361.6,283.6,361.5z"/>
	<path class="st0" d="M671.3,539.4c0-16.7-0.1-33.4,0-50.1c0.1-22.1,14.7-33.4,32.2-20.9c10.1,7.2,13.1,3.2,19.9-0.1
		c38.1-18.7,72.6,1.2,73.8,43.1c0.8,28.4-0.6,56.8,0.5,85.2c0.6,15.5-8.1,15.4-18.9,15.1c-10.1-0.3-20.5,1.7-20-14.3
		c0.7-24.2,0.2-48.4,0.2-72.7c0-14.4-2.7-27.9-20.3-29c-17.4-1.1-26.4,10.3-27.4,26.2c-1.5,24.1-1.9,48.4-1.1,72.6
		c0.5,15.6-6.9,17.5-19.7,17.4c-12.7,0-20.6-1.4-19.5-17.3C672.3,576.3,671.3,557.8,671.3,539.4z"/>
	<path class="st0" d="M438.2,615.7c-22.7,0.7-43.5-4.2-57.4-23.9c-5.4-7.6-14.2-19.4-4.1-25.9c8.8-5.6,24.1-9.5,31.9,6.7
		c7.6,16,22,16,36.5,14.5c8.8-1,16.8-4.6,17.8-14.6c1.1-10.7-7.5-14-15.8-16.2c-13.7-3.5-27.8-5.7-41.3-9.8
		c-17.4-5.2-28.8-16.4-29.8-35.8c-1-19.7,8.2-33.5,25.4-42.2c27.2-13.8,65.7-7.6,83.1,13.5c6.2,7.6,14.8,19.7,6.5,25.6
		c-7.8,5.6-23.4,9.5-31.9-6.3c-8.4-15.6-23.3-13.8-37.6-10.7c-6,1.3-10.4,5.8-10.8,12.3c-0.4,6.7,3.6,11.2,9.8,12.8
		c8.8,2.3,17.8,4.1,26.8,5.7c37.4,6.8,54.5,22.6,52.5,48.9C497.6,598.5,474.5,615.5,438.2,615.7z"/>
	<path class="st0" d="M652.7,538.1c0.3,47.1-26.8,77.4-69.5,77.6c-43,0.2-71.4-29.9-71.6-75.9c-0.2-45.7,28.5-77.9,70-78.5
		C622.9,460.7,652.4,492.6,652.7,538.1z M616.4,539.3c-1.6-18-1.8-37.4-22.8-45.7c-13.7-5.4-26.3-2.2-35.7,9.8
		c-12.4,15.9-12.1,55.9,0.3,71.2c9.7,11.9,22.7,14.6,36,9.1C613.6,575.7,614.7,557.3,616.4,539.3z"/>
	<path class="st0" d="M4.8,540c-0.2-46.3,27.5-78,69-78.8c41.2-0.8,71.1,31.3,71.6,76.6c0.4,46.5-27.1,77.4-69.4,77.8
		C33,616.1,5.1,586.5,4.8,540z M41,543.4c1.4,5.8,2.7,15.8,6.4,24.9C52.1,580,61.8,586,74.9,586c12,0,21.5-4.7,26.6-15.3
		c10.4-21.5,10.6-43.9-0.6-64.8c-10.7-20-39.5-19.6-51.6-0.2C42.9,515.9,41.6,527.5,41,543.4z"/>
	<path class="st0" d="M437.5,390.7c-25.7,0.2-46.4-5.2-59.6-25.4c-4.6-7.1-12.4-18.5-3-24.1c8.6-5.1,23.4-8.2,30.7,5.1
		c8.9,16,22.3,18.8,38.2,15.9c8.4-1.5,16.8-4.8,17.7-14.9c1-11.1-8.4-13.7-16.2-15.9c-12.8-3.6-26.1-5.5-39-9.1
		c-19.6-5.4-32.6-17.5-32.4-39c0.2-21.8,12.4-35.7,32.5-42.8c27.1-9.5,61.2-2.2,76.4,16.8c6,7.5,14.7,18.7,5.1,25.4
		c-7.6,5.3-22.8,8.2-30.4-5.5c-8.7-15.9-22.6-15.2-37-12c-6.9,1.5-11.9,6.5-11.5,14.4c0.3,6.7,5.1,10.6,11,12.1
		c11.3,2.7,22.9,4.4,34.3,6.9c31.3,6.9,44.2,20.7,43.1,45.9c-1.1,25-19,42-47.9,45.5C444.6,390.5,439.6,390.6,437.5,390.7z"/>
	<path class="st0" d="M143.1,288.2c-16.1,2.5-32.6,9.8-42.4-11.6c-1.2-2.7-4.8-4.9-7.8-6c-17.7-6.1-33-3.4-43.4,13.8
		c-12.7,20.9-7.9,57.3,10,68.6c17,10.7,34.8,10.6,45.4-8.2c7.4-13.2,17.2-9.9,27.5-10.3c12.5-0.4,13.4,4.9,9.8,15.5
		c-13.4,38.8-68.9,54.1-105.8,28.6c-29.8-20.6-40.9-63.6-25.5-98.8c14.6-33.4,50.1-50.1,87.3-40.9
		C123,245.1,135.3,258.3,143.1,288.2z"/>
	<path class="st0" d="M315.4,508.1c0-27.5,0.8-55.1-0.3-82.6c-0.6-15.8,7.5-17.3,19.9-17.5c12.9-0.2,19.9,2.1,19.7,17.7
		c-0.8,56.8-0.8,113.5,0,170.3c0.2,17.2-10,15.5-21.2,15.9c-11.7,0.4-18.8-1.6-18.3-16C316,566.6,315.4,537.3,315.4,508.1z"/>
	<path class="st0" d="M163.8,282.1c0-27.5,0.7-55-0.3-82.5c-0.5-14.9,7.3-15.6,18.6-15.4c10.9,0.1,19.1,0,18.9,15.2
		c-0.7,57.5-0.6,115-0.1,172.4c0.1,15.8-9.7,14.2-19.8,14.5c-10.3,0.3-17.7-0.9-17.5-14.3C164.2,342.1,163.8,312.1,163.8,282.1z"/>
</g>
</svg>
