<?xml version="1.0" encoding="utf-8"?>
<!-- Generator: Adobe Illustrator 19.1.0, SVG Export Plug-In . SVG Version: 6.00 Build 0)  -->
<svg version="1.1" id="Layer_1" xmlns="http://www.w3.org/2000/svg" xmlns:xlink="http://www.w3.org/1999/xlink" x="0px" y="0px"
	 viewBox="0 0 180 53" style="enable-background:new 0 0 180 53;" xml:space="preserve">
<style type="text/css">
	.st0{fill:url(#SVGID_1_);}
	.st1{fill:url(#SVGID_2_);}
	.st2{fill:url(#SVGID_3_);}
	.st3{fill:url(#SVGID_4_);}
	.st4{fill:url(#SVGID_5_);}
	.st5{fill:url(#SVGID_6_);}
	.st6{fill:url(#SVGID_7_);}
	.st7{fill:url(#SVGID_8_);}
	.st8{fill:#8BC854;}
	.st9{fill:url(#SVGID_9_);}
	.st10{fill:url(#SVGID_10_);}
	.st11{fill:#FFFFFF;}
</style>
<g>
	<path class="st11" d="M13.8,42.8c-7.9,0-13.6-6.5-13.6-15.4c0-4.9,1.6-9.2,4.6-12.2c2.5-2.5,6-3.9,9.6-3.9c1.6,0,2.7,0.3,4.7,0.8
		V3.3C19,1.7,20.2,0,21.9,0h4.5C28,0,29,1.7,29,3.3v29.7c0,2.6,0.2,4.7,0.4,6.1c0.1,0.8-0.1,1.5-0.7,2.1c-0.6,0.6-1.3,0.8-2.1,0.8
		h-4.1c-0.9,0-1.8-0.3-2.3-1C18.3,42.1,16.1,42.8,13.8,42.8z M15.2,20.6c-4.2,0-4.5,5.4-4.5,6.5c0,5.7,3.3,6.1,4.4,6.1
		c1.8,0,3.3-1.2,3.8-3.1c0.1-0.3,0.2-0.7,0.2-1.2v-4.3c0-0.5-0.1-0.9-0.2-1.1c0,0,0-0.1-0.1-0.1C18.5,22.1,17.2,20.6,15.2,20.6z"/>
	<path class="st11" d="M64.7,53c-1.6,0-2.7-1.8-2.7-3.4V23.1c0-3-0.2-5.5-0.3-7.9c0-0.8,0.2-1.6,0.8-2.2c0.6-0.6,1.3-1,2.1-1h4.1
		c0.9,0,1.8,0.5,2.3,1.2c2.1-1.7,4.2-1.7,6.8-1.7c7.8,0,13.5,6.5,13.5,15.4c0,11.1-7.5,16.1-14.3,16.1c-1.7,0-2.8-0.3-4.8-0.8v7.4
		c0,1.6-1.2,3.4-2.8,3.4H64.7z M72.2,30.8c0.5,1.8,2.1,2.9,3.9,2.9c4.1,0,4.6-4.6,4.6-6.5c0-2.9-1.1-6.2-4.4-6.2
		c-1.8,0-3.4,0.8-3.9,2.7c0,0-0.2,0.6-0.2,0.6c-0.2,0.6-0.1,0.5-0.2,1.1v4.2C72,30,72.1,30.4,72.2,30.8z"/>
	<path class="st11" d="M94.9,53c-1.6,0-2.9-1.8-2.9-3.4V23.1c0-3-0.1-5.5-0.3-7.9c0-0.8,0.2-1.6,0.8-2.2c0.6-0.6,1.3-1,2.1-1h4.1
		c0.9,0,1.8,0.5,2.3,1.2c2-1.1,4.2-1.7,6.8-1.7c7.8,0,13.5,6.5,13.5,15.4c0,11.1-7.5,16.1-14.4,16.1c-1.7,0-2.9-0.3-4.9-0.8v7.4
		c0,1.6-1,3.4-2.7,3.4H94.9z M102.3,30.8c0.5,1.8,2.1,2.9,3.9,2.9c4.1,0,4.6-4.6,4.6-6.5c0-2.9-1.1-6.2-4.4-6.2
		c-1.8,0-3.5,0.3-4.1,2.3c0,0-0.2,1-0.2,1.1c-0.2,0.6-0.2,0.9-0.2,1.1v4.2C102,30,102.2,30.4,102.3,30.8z"/>
	<path class="st11" d="M132,40.1c0,1.6-0.9,2.9-2.5,2.9h-4.2c-1.6,0-3.3-1.3-3.3-2.9V3.9c0-1.6,1.7-2.9,3.3-2.9h4.2
		c1.6,0,2.5,1.3,2.5,2.9V40.1z"/>
	<path class="st11" d="M148.7,43c-9.1,0-15.2-6.2-15.2-15.3c0-4.4,1.3-8.4,3.8-11.3c2.7-3.2,6.5-4.9,10.8-4.9c5.8,0,9,2.9,10.7,5.4
		c1.6,2.5,2.6,5.8,2.6,9.1c0,1-0.1,1.7-0.1,2.2l0,0.2c-0.2,1.5-1.4,2.6-3,2.6h-13.8c0.8,2,2.5,2.7,4.9,2.7c2.8,0,4.4-0.5,5.7-1
		c0.4-0.2,0.8-0.2,1.2-0.2c0.5,0,0.9,0.1,1.3,0.3c0.8,0.4,1.4,1.1,1.6,2l0.8,3.2c0.3,1.4-0.4,2.8-1.7,3.4
		C156.4,42.1,153.2,43,148.7,43z M151.8,24.7c0-2.1-1.1-4.1-4-4.1c-2.7,0-3.3,1.9-3.3,4.1c0,0,2-0.1,3.5-0.1
		C149.2,24.6,151.8,24.7,151.8,24.7z"/>
	<path class="st11" d="M165.3,43c-1.6,0-2.3-1.8-2.3-3.4V22.7c0-3.1-0.4-5.4-0.5-7.5c-0.1-0.8,0.1-1.7,0.6-2.3c0.6-0.6,1.2-1,2-1
		h3.9c0.8,0,1.6,0.4,2.1,0.9c1.5-0.9,3.3-1.4,5.1-1.4c0.7,0,1,0.1,1.7,0.3c1.3,0.3,2,1.5,2,2.9v4.2c0,0.9-0.1,1.7-0.8,2.3
		c-0.5,0.4-1,0.6-1.7,0.6c-0.2,0-0.4,0-0.6-0.1c-0.2,0-0.4-0.1-0.9-0.1c-2.3,0-2.8,2.5-3,3.3c-0.1,0.5,0,1,0,1.6v13.1
		c0,1.6-1.5,3.4-3.2,3.4H165.3z"/>
	<g>
		<path class="st11" d="M47.1,41.1c-7.7,0-14-6.2-14-13.8s6.3-13.8,14-13.8c7.6,0,13.8,6,14,13.5c-0.2-8.2-7-14.8-15.3-14.8
			c-8.5,0-15.3,6.8-15.3,15.1s6.9,15.1,15.3,15.1c8.3,0,15.1-6.6,15.3-14.8C60.8,35.1,54.6,41.1,47.1,41.1z"/>
		<path class="st11" d="M49.6,38.6c-6.3,0-11.5-5.1-11.5-11.3S43.2,16,49.6,16S61,21,61,27.3c0-6.9-5.6-12.5-12.6-12.5
			s-12.6,5.6-12.6,12.5s5.6,12.5,12.6,12.5S61,34.2,61,27.3C61,33.5,55.9,38.6,49.6,38.6z"/>
		<path class="st11" d="M52.1,36.2c-5,0-9-4-9-8.9s4-8.9,9-8.9s9,4,9,8.9c0-5.6-4.6-10.2-10.3-10.2s-10.3,4.6-10.3,10.2
			c0,5.6,4.6,10.2,10.3,10.2S61,32.9,61,27.3C61,32.2,57,36.2,52.1,36.2z"/>
		<path class="st11" d="M52.2,20.2c-4,0-7.2,3.2-7.2,7.1c0,3.9,3.2,7.1,7.2,7.1s7.2-3.2,7.2-7.1C59.4,23.4,56.2,20.2,52.2,20.2z
			 M52.2,32.2c-2.8,0-5-2.2-5-4.9s2.2-4.9,5-4.9s5,2.2,5,4.9S55,32.2,52.2,32.2z"/>
		<ellipse class="st11" cx="52.2" cy="27.3" rx="2.7" ry="2.7"/>
	</g>
</g>
</svg>
