<?xml version="1.0" encoding="utf-8"?>
<!-- Generator: Adobe Illustrator 19.2.1, SVG Export Plug-In . SVG Version: 6.00 Build 0)  -->
<svg version="1.1" id="Layer_1" xmlns="http://www.w3.org/2000/svg" xmlns:xlink="http://www.w3.org/1999/xlink" x="0px" y="0px"
	 viewBox="0 0 800 800" style="enable-background:new 0 0 800 800;" xml:space="preserve">
<style type="text/css">
	.st0{fill:#E81700;}
</style>
<g>
	<path class="st0" d="M544.2,563.4c0.7-1.5,1.1-2.5,1.6-3.5c11.8-22.3,23.6-44.5,35.3-66.9c1.1-2.1,2.3-2.9,4.7-2.8
		c7.6,0.2,15.2,0.1,22.9,0.1c1.2,0,2.4,0,4.5,0c-14.6-26.4-28.9-52-43.4-78.2c-0.9,1.5-1.6,2.6-2.2,3.7
		c-15.6,29.9-31.2,59.8-46.8,89.7c-15.8,30.4-38.5,54.7-66.7,73.9c-26.4,18-55.4,29.7-87.1,34c-38.1,5.2-75,0.3-109.8-15.9
		c-62.2-29-101.5-77.2-115.7-144.3c-18.7-88.2,22.9-176.8,101.9-219.8c34.1-18.6,70.7-26.5,109.3-24c28,1.7,54.1,10.4,78.9,23.1
		c4,2.1,8,4.3,12.4,6.6c-17.3,28.8-34.4,57.4-51.7,86.3c-8.5-5.1-17.6-8.3-27.1-10.2c-37.4-7.2-70.9,0.1-97.8,28.3
		c-20.3,21.3-28.6,47.4-26.2,76.6c2.8,35.1,19.1,62.8,50.4,79.1c37.2,19.4,74.4,17.8,109.3-6.9c10.4-7.3,17.8-17.5,23.9-28.5
		c38.5-69,77.1-138,115.6-207.1c9.1-16.4,18.3-32.7,27.5-49.1c0.5-0.9,1.1-1.7,1.8-2.8c73.5,134,146.7,267.6,220.2,401.7
		c-1.4,0.1-2.3,0.2-3.3,0.2c-35.2,0-70.5,0-105.7,0.1c-2.4,0-3.6-0.9-4.8-2.9c-7.4-12.5-15-24.9-22.3-37.5c-1.4-2.4-2.9-3.2-5.6-3.2
		c-33.2,0.1-66.4,0.1-99.6,0.1C547.3,563.4,546,563.4,544.2,563.4z"/>
	<path class="st0" d="M3.5,217.7c32.8,0,65.5,0,98.5,0c0,129.7,0,259.2,0,388.9c-32.8,0-65.5,0-98.5,0
		C3.5,477.1,3.5,347.6,3.5,217.7z"/>
</g>
</svg>
